<svg width="67" height="24" viewBox="0 0 67 24" fill="none" xmlns="http://www.w3.org/2000/svg">
<g id="&#208;&#178;&#208;&#181;&#208;&#187;&#208;&#184;&#208;&#186;&#208;&#184;&#208;&#185; &#208;&#189;&#208;&#190;&#208;&#178;&#208;&#179;&#208;&#190;&#209;&#128;&#208;&#190;&#208;&#180;">
<path d="M5.08618 10.0002H7.87382C9.56416 10.0002 10.3277 9.15856 10.3277 8.0435C10.3277 6.91779 9.53931 6.28214 8.81843 6.24308V6.17205C9.48604 6.0016 10.0436 5.54705 10.0436 4.63796C10.0436 3.56197 9.29783 2.72745 7.74953 2.72745H5.08618V10.0002ZM6.18348 9.05913V6.72958H7.80635C8.68703 6.72958 9.23746 7.29776 9.23746 7.99023C9.23746 8.60103 8.82198 9.05913 7.76729 9.05913H6.18348ZM6.18348 5.87376V3.6614H7.68206C8.55209 3.6614 8.96757 4.1195 8.96757 4.72319C8.96757 5.42631 8.39229 5.87376 7.65365 5.87376H6.18348Z" fill="white"/>
<path d="M13.1292 10.0002H17.7314V9.05558H14.2264V6.82901H17.4509V5.88796H14.2264V3.67205H17.6888V2.72745H13.1292V10.0002Z" fill="white"/>
<path d="M20.1041 10.0002H20.4166C22.0714 10.0002 22.4692 8.77149 22.5651 6.43484L22.6787 3.65785H25.1609V10.0002H26.244V2.72745H21.6453L21.521 6.14364C21.4429 8.24947 21.1872 9.02006 20.3172 9.04137L20.1041 9.04847V10.0002Z" fill="white"/>
<path d="M29.342 2.72745V10.0002H30.3506L34.0473 4.66637H34.1148V10.0002H35.2121V2.72745H34.1964L30.4962 8.06836H30.4287V2.72745H29.342Z" fill="white"/>
<path d="M42.6203 10.0002H43.9591L40.9583 6.0158L43.9768 2.72745H42.6167L39.7865 5.79918H39.41V2.72745H38.3127V10.0002H39.41V6.74023H40.1629L42.6203 10.0002Z" fill="white"/>
<path d="M46.5706 2.72745V10.0002H47.5791L51.2758 4.66637H51.3433V10.0002H52.4406V2.72745H51.425L47.7247 8.06836H47.6572V2.72745H46.5706Z" fill="white"/>
<path d="M55.5413 2.72745V10.0002H56.5498L60.2465 4.66637H60.314V10.0002H61.4113V2.72745H60.3957L56.6954 8.06836H56.6279V2.72745H55.5413ZM59.1741 0.880859C59.1741 1.23952 58.9752 1.55558 58.4781 1.55558C57.9738 1.55558 57.7856 1.23597 57.7856 0.880859H56.9156C56.9156 1.67987 57.5228 2.23029 58.4781 2.23029C59.4404 2.23029 60.0477 1.67987 60.0477 0.880859H59.1741Z" fill="white"/>
<path d="M0.537354 22.0002H1.63465V18.829H5.26037V22.0002H6.36122V14.7275H5.26037V17.888H1.63465V14.7275H0.537354V22.0002Z" fill="white"/>
<path d="M15.7767 18.3638C15.7767 16.0378 14.3847 14.628 12.5026 14.628C10.6133 14.628 9.22486 16.0378 9.22486 18.3638C9.22486 20.6863 10.6133 22.0996 12.5026 22.0996C14.3847 22.0996 15.7767 20.6898 15.7767 18.3638ZM14.6901 18.3638C14.6901 20.1358 13.7526 21.0982 12.5026 21.0982C11.249 21.0982 10.3151 20.1358 10.3151 18.3638C10.3151 16.5918 11.249 15.6294 12.5026 15.6294C13.7526 15.6294 14.6901 16.5918 14.6901 18.3638Z" fill="white"/>
<path d="M18.6448 22.0002H21.4324C23.1228 22.0002 23.8863 21.1586 23.8863 20.0435C23.8863 18.9178 23.0979 18.2821 22.377 18.2431V18.1721C23.0446 18.0016 23.6022 17.5471 23.6022 16.638C23.6022 15.562 22.8564 14.7275 21.3081 14.7275H18.6448V22.0002ZM19.7421 21.0591V18.7296H21.3649C22.2456 18.7296 22.7961 19.2978 22.7961 19.9902C22.7961 20.601 22.3806 21.0591 21.3259 21.0591H19.7421ZM19.7421 17.8738V15.6614H21.2407C22.1107 15.6614 22.5262 16.1195 22.5262 16.7232C22.5262 17.4263 21.9509 17.8738 21.2122 17.8738H19.7421Z" fill="white"/>
<path d="M31.2225 14.7275H26.6877V22.0002H27.785V15.6721H31.2225V14.7275Z" fill="white"/>
<path d="M39.974 18.3638C39.974 16.0378 38.5819 14.628 36.6998 14.628C34.8106 14.628 33.4221 16.0378 33.4221 18.3638C33.4221 20.6863 34.8106 22.0996 36.6998 22.0996C38.5819 22.0996 39.974 20.6898 39.974 18.3638ZM38.8873 18.3638C38.8873 20.1358 37.9498 21.0982 36.6998 21.0982C35.4463 21.0982 34.5123 20.1358 34.5123 18.3638C34.5123 16.5918 35.4463 15.6294 36.6998 15.6294C37.9498 15.6294 38.8873 16.5918 38.8873 18.3638Z" fill="white"/>
<path d="M42.842 22.0002H43.9393V19.4434H45.4308C47.1176 19.4434 47.9521 18.4242 47.9521 17.0819C47.9521 15.7431 47.1247 14.7275 45.4344 14.7275H42.842V22.0002ZM43.9393 18.513V15.6685H45.3172C46.4038 15.6685 46.8477 16.258 46.8477 17.0819C46.8477 17.9057 46.4038 18.513 45.3314 18.513H43.9393Z" fill="white"/>
<path d="M57.056 18.3638C57.056 16.0378 55.664 14.628 53.7819 14.628C51.8926 14.628 50.5042 16.0378 50.5042 18.3638C50.5042 20.6863 51.8926 22.0996 53.7819 22.0996C55.664 22.0996 57.056 20.6898 57.056 18.3638ZM55.9694 18.3638C55.9694 20.1358 55.0319 21.0982 53.7819 21.0982C52.5283 21.0982 51.5944 20.1358 51.5944 18.3638C51.5944 16.5918 52.5283 15.6294 53.7819 15.6294C55.0319 15.6294 55.9694 16.5918 55.9694 18.3638Z" fill="white"/>
<path d="M59.3736 23.758H60.4248V22.0002H65.3076V23.7473H66.3587V21.0698H65.5349V14.7275H61.0498L60.8793 17.7992C60.7692 19.8233 60.3396 20.6578 59.8531 21.0698H59.3736V23.758ZM61.1457 21.0698C61.5611 20.4057 61.8417 19.3368 61.9305 17.7992L62.0441 15.6721H64.4837V21.0698H61.1457Z" fill="white"/>
</g>
</svg>
