<svg width="48" height="9" viewBox="0 0 48 9" fill="none" xmlns="http://www.w3.org/2000/svg">
<g id="&#208;&#147;&#208;&#155;&#208;&#144;&#208;&#151;&#208;&#158;&#208;&#146;">
<path d="M5.33387 0.727362H0.799072V8.00009H1.89637V1.67196H5.33387V0.727362Z" fill="white"/>
<path d="M7.52013 8.00009H7.83263C9.48746 8.00009 9.88519 6.7714 9.98107 4.43475L10.0947 1.65776H12.5769V8.00009H13.66V0.727362H9.06132L8.93703 4.14356C8.85891 6.24938 8.60323 7.01998 7.7332 7.04128L7.52013 7.04838V8.00009Z" fill="white"/>
<path d="M17.3724 8.00009L18.04 6.07537H20.8809L21.545 8.00009H22.7098L20.0926 0.727362H18.8248L16.2076 8.00009H17.3724ZM18.3596 5.15208L19.4321 2.04838H19.4889L20.5613 5.15208H18.3596Z" fill="white"/>
<path d="M27.6925 8.09952C29.1769 8.09952 30.2671 7.21174 30.2636 6.00435C30.2671 5.08461 29.7096 4.42409 28.7437 4.27495V4.21813C29.5036 4.02282 29.9972 3.42623 29.9937 2.60946C29.9972 1.54057 29.1201 0.62793 27.7209 0.62793C26.3857 0.62793 25.3133 1.43404 25.2778 2.61657H26.3396C26.3644 1.94895 26.993 1.54412 27.7067 1.54412C28.4489 1.54412 28.9354 1.99512 28.9319 2.66628C28.9354 3.36941 28.3708 3.83105 27.5647 3.83105H26.9504V4.72594H27.5647C28.5732 4.72594 29.1556 5.23731 29.1556 5.96884C29.1556 6.67552 28.5413 7.15492 27.6854 7.15492C26.8971 7.15492 26.2827 6.75009 26.2401 6.10378H25.1251C25.1712 7.28986 26.2224 8.09952 27.6925 8.09952Z" fill="white"/>
<path d="M39.5228 4.36373C39.5228 2.03773 38.1307 0.62793 36.2486 0.62793C34.3594 0.62793 32.9709 2.03773 32.9709 4.36373C32.9709 6.68617 34.3594 8.09952 36.2486 8.09952C38.1307 8.09952 39.5228 6.68972 39.5228 4.36373ZM38.4361 4.36373C38.4361 6.13574 37.4986 7.0981 36.2486 7.0981C34.9951 7.0981 34.0611 6.13574 34.0611 4.36373C34.0611 2.59171 34.9951 1.62935 36.2486 1.62935C37.4986 1.62935 38.4361 2.59171 38.4361 4.36373Z" fill="white"/>
<path d="M42.3909 8.00009H45.1785C46.8689 8.00009 47.6323 7.15847 47.6323 6.04341C47.6323 4.9177 46.844 4.28205 46.1231 4.24299V4.17196C46.7907 4.00151 47.3483 3.54696 47.3483 2.63787C47.3483 1.56188 46.6025 0.727362 45.0542 0.727362H42.3909V8.00009ZM43.4882 7.05904V4.72949H45.111C45.9917 4.72949 46.5421 5.29767 46.5421 5.99015C46.5421 6.60094 46.1267 7.05904 45.072 7.05904H43.4882ZM43.4882 3.87367V1.66131H44.9867C45.8568 1.66131 46.2723 2.11941 46.2723 2.7231C46.2723 3.42623 45.697 3.87367 44.9583 3.87367H43.4882Z" fill="white"/>
</g>
</svg>
