<svg width="85" height="9" viewBox="0 0 85 9" fill="none" xmlns="http://www.w3.org/2000/svg">
<g id="&#208;&#154;&#208;&#158;&#208;&#162;&#208;&#149;&#208;&#155;&#208;&#172;&#208;&#157;&#208;&#152;&#208;&#167;-1">
<path d="M4.6193 8.00009H5.95807L2.95737 4.01571L5.97583 0.727362H4.61575L1.78549 3.79909H1.40907V0.727362H0.311768V8.00009H1.40907V4.74015H2.16191L4.6193 8.00009Z" fill="white"/>
<path d="M14.5257 4.36373C14.5257 2.03773 13.1337 0.62793 11.2516 0.62793C9.36237 0.62793 7.97388 2.03773 7.97388 4.36373C7.97388 6.68617 9.36237 8.09952 11.2516 8.09952C13.1337 8.09952 14.5257 6.68972 14.5257 4.36373ZM13.4391 4.36373C13.4391 6.13574 12.5016 7.0981 11.2516 7.0981C9.99802 7.0981 9.06408 6.13574 9.06408 4.36373C9.06408 2.59171 9.99802 1.62935 11.2516 1.62935C12.5016 1.62935 13.4391 2.59171 13.4391 4.36373Z" fill="white"/>
<path d="M16.7324 1.67196H18.998V8.00009H20.0918V1.67196H22.361V0.727362H16.7324V1.67196Z" fill="white"/>
<path d="M25.1047 8.00009H29.707V7.05549H26.202V4.82892H29.4265V3.88787H26.202V1.67196H29.6644V0.727362H25.1047V8.00009Z" fill="white"/>
<path d="M32.0797 8.00009H32.3922C34.047 8.00009 34.4448 6.7714 34.5406 4.43475L34.6543 1.65776H37.1365V8.00009H38.2196V0.727362H33.6209L33.4966 4.14356C33.4185 6.24938 33.1628 7.01998 32.2928 7.04128L32.0797 7.04838V8.00009Z" fill="white"/>
<path d="M42.4256 3.6606V0.727362H41.3247V8.00009H44.0485C45.6678 8.00009 46.5946 7.0981 46.5911 5.79483C46.5946 4.49512 45.6678 3.6606 44.0485 3.6606H42.4256ZM42.4256 4.5839H44.0485C44.9895 4.5839 45.508 5.12367 45.508 5.78063C45.508 6.45534 44.9895 7.07679 44.0485 7.07679H42.4256V4.5839Z" fill="white"/>
<path d="M49.429 8.00009H50.5263V4.82892H54.152V8.00009H55.2528V0.727362H54.152V3.88787H50.5263V0.727362H49.429V8.00009Z" fill="white"/>
<path d="M58.3508 0.727362V8.00009H59.3594L63.0561 2.66628H63.1236V8.00009H64.2209V0.727362H63.2052L59.505 6.06827H59.4375V0.727362H58.3508Z" fill="white"/>
<path d="M67.4671 0.727362V3.12793C67.4636 4.7508 68.4472 5.39 70.0382 5.39C70.7377 5.39 71.3414 5.30123 71.8634 5.15208V8.00009H72.9501V0.727362H71.8634V4.21458C71.3201 4.36017 70.6454 4.44895 70.0382 4.44895C69.09 4.44895 68.5502 4.12935 68.5502 3.12793V0.727362H67.4671Z" fill="white"/>
<path d="M79.2645 3.90563H76.0401V4.82537H79.2645V3.90563Z" fill="white"/>
<path d="M84.7223 0.727362H83.6996C83.6605 0.926225 83.1065 1.84597 82.0447 1.84597V2.74796C82.8686 2.74796 83.4403 2.42125 83.5611 2.20819H83.6214V8.00009H84.7223V0.727362Z" fill="white"/>
</g>
</svg>
