<svg width="81" height="9" viewBox="0 0 81 9" fill="none" xmlns="http://www.w3.org/2000/svg">
<g id="&#208;&#186;&#209;&#128;&#208;&#176;&#209;&#129;&#208;&#189;&#208;&#190;&#209;&#143;&#209;&#128;&#209;&#129;&#208;&#186;">
<path d="M4.37809 8.00009H5.71686L2.71615 4.01571L5.73462 0.727362H4.37453L1.54428 3.79909H1.16786V0.727362H0.0705566V8.00009H1.16786V4.74015H1.9207L4.37809 8.00009Z" fill="white"/>
<path d="M8.32837 8.00009H9.42567V5.44327H10.9171C12.6039 5.44327 13.4385 4.42409 13.4385 3.08177C13.4385 1.74299 12.611 0.727362 10.9207 0.727362H8.32837V8.00009ZM9.42567 4.51287V1.66841H10.8035C11.8902 1.66841 12.3341 2.2579 12.3341 3.08177C12.3341 3.90563 11.8902 4.51287 10.8177 4.51287H9.42567Z" fill="white"/>
<path d="M16.0677 8.00009L16.7353 6.07537H19.5762L20.2403 8.00009H21.4051L18.7879 0.727362H17.5201L14.9029 8.00009H16.0677ZM17.0549 5.15208L18.1274 2.04838H18.1842L19.2566 5.15208H17.0549Z" fill="white"/>
<path d="M29.654 3.09242C29.4054 1.53702 28.1874 0.62793 26.6497 0.62793C24.7676 0.62793 23.3792 2.03773 23.3792 4.36373C23.3792 6.68972 24.7605 8.09952 26.6497 8.09952C28.2478 8.09952 29.4161 7.0981 29.654 5.65989L28.5461 5.65634C28.3578 6.58674 27.5766 7.0981 26.6569 7.0981C25.4104 7.0981 24.4693 6.14284 24.4693 4.36373C24.4693 2.59881 25.4069 1.62935 26.6604 1.62935C27.5872 1.62935 28.3649 2.15137 28.5461 3.09242H29.654Z" fill="white"/>
<path d="M32.467 8.00009H33.5643V4.82892H37.1901V8.00009H38.2909V0.727362H37.1901V3.88787H33.5643V0.727362H32.467V8.00009Z" fill="white"/>
<path d="M47.7064 4.36373C47.7064 2.03773 46.3143 0.62793 44.4322 0.62793C42.543 0.62793 41.1545 2.03773 41.1545 4.36373C41.1545 6.68617 42.543 8.09952 44.4322 8.09952C46.3143 8.09952 47.7064 6.68972 47.7064 4.36373ZM46.6197 4.36373C46.6197 6.13574 45.6822 7.0981 44.4322 7.0981C43.1787 7.0981 42.2447 6.13574 42.2447 4.36373C42.2447 2.59171 43.1787 1.62935 44.4322 1.62935C45.6822 1.62935 46.6197 2.59171 46.6197 4.36373Z" fill="white"/>
<path d="M55.4253 8.00009V0.727362H52.833C51.1462 0.727362 50.3152 1.66841 50.3152 3.00719C50.3152 3.98375 50.7591 4.72594 51.6505 5.0562L50.0382 8.00009H51.2882L52.7655 5.24796C52.7904 5.24796 52.8117 5.24796 52.8365 5.24796H54.328V8.00009H55.4253ZM54.328 4.30336H52.936C51.8671 4.30336 51.4196 3.8275 51.4196 3.00719C51.4196 2.18333 51.8671 1.66841 52.9502 1.66841H54.328V4.30336Z" fill="white"/>
<path d="M58.5198 8.00009H59.6171V5.44327H61.1086C62.7953 5.44327 63.6299 4.42409 63.6299 3.08177C63.6299 1.74299 62.8024 0.727362 61.1121 0.727362H58.5198V8.00009ZM59.6171 4.51287V1.66841H60.9949C62.0816 1.66841 62.5255 2.2579 62.5255 3.08177C62.5255 3.90563 62.0816 4.51287 61.0091 4.51287H59.6171Z" fill="white"/>
<path d="M72.4567 3.09242C72.2082 1.53702 70.9901 0.62793 69.4525 0.62793C67.5704 0.62793 66.1819 2.03773 66.1819 4.36373C66.1819 6.68972 67.5633 8.09952 69.4525 8.09952C71.0505 8.09952 72.2188 7.0981 72.4567 5.65989L71.3488 5.65634C71.1606 6.58674 70.3793 7.0981 69.4596 7.0981C68.2131 7.0981 67.2721 6.14284 67.2721 4.36373C67.2721 2.59881 68.2096 1.62935 69.4631 1.62935C70.39 1.62935 71.1677 2.15137 71.3488 3.09242H72.4567Z" fill="white"/>
<path d="M79.5773 8.00009H80.9161L77.9154 4.01571L80.9338 0.727362H79.5738L76.7435 3.79909H76.3671V0.727362H75.2698V8.00009H76.3671V4.74015H77.1199L79.5773 8.00009Z" fill="white"/>
</g>
</svg>
