<svg width="77" height="9" viewBox="0 0 77 9" fill="none" xmlns="http://www.w3.org/2000/svg">
<g id="&#208;&#156;&#208;&#144;&#208;&#157;&#208;&#162;&#208;&#163;&#208;&#160;&#208;&#158;&#208;&#146;&#208;&#158;">
<path d="M0.799072 0.727362V8.00009H1.84311V2.73375H1.91058L4.05546 7.98944H4.92194L7.06683 2.7373H7.1343V8.00009H8.17833V0.727362H6.84666L4.53132 6.38077H4.44609L2.13075 0.727362H0.799072Z" fill="white"/>
<path d="M12.0736 8.00009L12.7412 6.07537H15.5821L16.2462 8.00009H17.4109L14.7937 0.727362H13.526L10.9088 8.00009H12.0736ZM13.0608 5.15208L14.1332 2.04838H14.1901L15.2625 5.15208H13.0608Z" fill="white"/>
<path d="M19.9612 8.00009H21.0585V4.82892H24.6842V8.00009H25.785V0.727362H24.6842V3.88787H21.0585V0.727362H19.9612V8.00009Z" fill="white"/>
<path d="M28.5244 1.67196H30.79V8.00009H31.8838V1.67196H34.1529V0.727362H28.5244V1.67196Z" fill="white"/>
<path d="M37.4116 8.09952H37.9088C39.0452 8.09952 39.4216 7.46387 39.7412 6.73944L42.2554 0.727362H41.1048L39.4074 4.93191L37.5004 0.727362H36.3356L38.8925 6.18546L38.7895 6.44469C38.6332 6.82466 38.3918 7.13361 37.8484 7.13361H37.4116V8.09952Z" fill="white"/>
<path d="M44.7932 8.00009H45.8905V5.44327H47.382C49.0688 5.44327 49.9033 4.42409 49.9033 3.08177C49.9033 1.74299 49.0759 0.727362 47.3855 0.727362H44.7932V8.00009ZM45.8905 4.51287V1.66841H47.2684C48.355 1.66841 48.7989 2.2579 48.7989 3.08177C48.7989 3.90563 48.355 4.51287 47.2826 4.51287H45.8905Z" fill="white"/>
<path d="M59.0072 4.36373C59.0072 2.03773 57.6151 0.62793 55.733 0.62793C53.8438 0.62793 52.4553 2.03773 52.4553 4.36373C52.4553 6.68617 53.8438 8.09952 55.733 8.09952C57.6151 8.09952 59.0072 6.68972 59.0072 4.36373ZM57.9205 4.36373C57.9205 6.13574 56.983 7.0981 55.733 7.0981C54.4795 7.0981 53.5455 6.13574 53.5455 4.36373C53.5455 2.59171 54.4795 1.62935 55.733 1.62935C56.983 1.62935 57.9205 2.59171 57.9205 4.36373Z" fill="white"/>
<path d="M61.8752 8.00009H64.6629C66.3532 8.00009 67.1167 7.15847 67.1167 6.04341C67.1167 4.9177 66.3284 4.28205 65.6075 4.24299V4.17196C66.2751 4.00151 66.8326 3.54696 66.8326 2.63787C66.8326 1.56188 66.0869 0.727362 64.5386 0.727362H61.8752V8.00009ZM62.9725 7.05904V4.72949H64.5954C65.4761 4.72949 66.0265 5.29767 66.0265 5.99015C66.0265 6.60094 65.611 7.05904 64.5563 7.05904H62.9725ZM62.9725 3.87367V1.66131H64.4711C65.3412 1.66131 65.7566 2.11941 65.7566 2.7231C65.7566 3.42623 65.1814 3.87367 64.4427 3.87367H62.9725Z" fill="white"/>
<path d="M76.2357 4.36373C76.2357 2.03773 74.8436 0.62793 72.9615 0.62793C71.0723 0.62793 69.6838 2.03773 69.6838 4.36373C69.6838 6.68617 71.0723 8.09952 72.9615 8.09952C74.8436 8.09952 76.2357 6.68972 76.2357 4.36373ZM75.149 4.36373C75.149 6.13574 74.2115 7.0981 72.9615 7.0981C71.708 7.0981 70.774 6.13574 70.774 4.36373C70.774 2.59171 71.708 1.62935 72.9615 1.62935C74.2115 1.62935 75.149 2.59171 75.149 4.36373Z" fill="white"/>
</g>
</svg>
