<svg width="36" height="9" viewBox="0 0 36 9" fill="none" xmlns="http://www.w3.org/2000/svg">
<g id="&#208;&#190;&#208;&#188;&#209;&#129;&#208;&#186;">
<path d="M7.45468 4.36373C7.45468 2.03773 6.06263 0.62793 4.18053 0.62793C2.29133 0.62793 0.902832 2.03773 0.902832 4.36373C0.902832 6.68617 2.29133 8.09952 4.18053 8.09952C6.06263 8.09952 7.45468 6.68972 7.45468 4.36373ZM6.36803 4.36373C6.36803 6.13574 5.43053 7.0981 4.18053 7.0981C2.92698 7.0981 1.99303 6.13574 1.99303 4.36373C1.99303 2.59171 2.92698 1.62935 4.18053 1.62935C5.43053 1.62935 6.36803 2.59171 6.36803 4.36373Z" fill="white"/>
<path d="M10.3228 0.727362V8.00009H11.3668V2.73375H11.4343L13.5791 7.98944H14.4456L16.5905 2.7373H16.658V8.00009H17.702V0.727362H16.3703L14.055 6.38077H13.9698L11.6544 0.727362H10.3228Z" fill="white"/>
<path d="M27.0234 3.09242C26.7748 1.53702 25.5568 0.62793 24.0191 0.62793C22.137 0.62793 20.7485 2.03773 20.7485 4.36373C20.7485 6.68972 22.1299 8.09952 24.0191 8.09952C25.6171 8.09952 26.7855 7.0981 27.0234 5.65989L25.9154 5.65634C25.7272 6.58674 24.946 7.0981 24.0262 7.0981C22.7798 7.0981 21.8387 6.14284 21.8387 4.36373C21.8387 2.59881 22.7762 1.62935 24.0298 1.62935C24.9566 1.62935 25.7343 2.15137 25.9154 3.09242H27.0234Z" fill="white"/>
<path d="M34.144 8.00009H35.4827L32.482 4.01571L35.5005 0.727362H34.1404L31.3101 3.79909H30.9337V0.727362H29.8364V8.00009H30.9337V4.74015H31.6866L34.144 8.00009Z" fill="white"/>
</g>
</svg>
