<svg width="42" height="8" viewBox="0 0 42 8" fill="none" xmlns="http://www.w3.org/2000/svg">
<g id="&#208;&#159;&#208;&#149;&#208;&#160;&#208;&#156;&#208;&#172;">
<path d="M6.56538 0.250977H0.95459V7.5237H2.04834V1.18848H5.47163V7.5237H6.56538V0.250977Z" fill="white"/>
<path d="M9.7433 7.5237H14.3456V6.5791H10.8406V4.35254H14.065V3.41149H10.8406V1.19558H14.303V0.250977H9.7433V7.5237Z" fill="white"/>
<path d="M17.2687 7.5237H18.366V4.96689H19.8575C21.5443 4.96689 22.3788 3.94771 22.3788 2.60538C22.3788 1.2666 21.5514 0.250977 19.861 0.250977H17.2687V7.5237ZM18.366 4.03649V1.19203H19.7438C20.8305 1.19203 21.2744 1.78152 21.2744 2.60538C21.2744 3.42924 20.8305 4.03649 19.758 4.03649H18.366Z" fill="white"/>
<path d="M25.1652 0.250977V7.5237H26.2092V2.25737H26.2767L28.4216 7.51305H29.288L31.4329 2.26092H31.5004V7.5237H32.5444V0.250977H31.2128L28.8974 5.90439H28.8122L26.4968 0.250977H25.1652Z" fill="white"/>
<path d="M36.9333 3.18422V0.250977H35.8324V7.5237H38.5562C40.1755 7.5237 41.1023 6.62172 41.0988 5.31845C41.1023 4.01873 40.1755 3.18422 38.5562 3.18422H36.9333ZM36.9333 4.10751H38.5562C39.4972 4.10751 40.0157 4.64728 40.0157 5.30424C40.0157 5.97896 39.4972 6.60041 38.5562 6.60041H36.9333V4.10751Z" fill="white"/>
</g>
</svg>
