<svg width="41" height="9" viewBox="0 0 41 9" fill="none" xmlns="http://www.w3.org/2000/svg">
<g id="&#208;&#191;&#209;&#129;&#208;&#186;&#208;&#190;&#208;&#178;">
<path d="M5.88008 0.727362H0.269287V8.00009H1.36304V1.66486H4.78633V8.00009H5.88008V0.727362Z" fill="white"/>
<path d="M15.0985 3.09242C14.8499 1.53702 13.6319 0.62793 12.0942 0.62793C10.2121 0.62793 8.82362 2.03773 8.82362 4.36373C8.82362 6.68972 10.205 8.09952 12.0942 8.09952C13.6922 8.09952 14.8606 7.0981 15.0985 5.65989L13.9905 5.65634C13.8023 6.58674 13.0211 7.0981 12.1013 7.0981C10.8549 7.0981 9.91382 6.14284 9.91382 4.36373C9.91382 2.59881 10.8513 1.62935 12.1049 1.62935C13.0317 1.62935 13.8094 2.15137 13.9905 3.09242H15.0985Z" fill="white"/>
<path d="M22.219 8.00009H23.5578L20.5571 4.01571L23.5756 0.727362H22.2155L19.3852 3.79909H19.0088V0.727362H17.9115V8.00009H19.0088V4.74015H19.7617L22.219 8.00009Z" fill="white"/>
<path d="M32.1255 4.36373C32.1255 2.03773 30.7334 0.62793 28.8513 0.62793C26.9621 0.62793 25.5736 2.03773 25.5736 4.36373C25.5736 6.68617 26.9621 8.09952 28.8513 8.09952C30.7334 8.09952 32.1255 6.68972 32.1255 4.36373ZM31.0388 4.36373C31.0388 6.13574 30.1013 7.0981 28.8513 7.0981C27.5978 7.0981 26.6638 6.13574 26.6638 4.36373C26.6638 2.59171 27.5978 1.62935 28.8513 1.62935C30.1013 1.62935 31.0388 2.59171 31.0388 4.36373Z" fill="white"/>
<path d="M34.9935 8.00009H37.7812C39.4715 8.00009 40.235 7.15847 40.235 6.04341C40.235 4.9177 39.4467 4.28205 38.7258 4.24299V4.17196C39.3934 4.00151 39.9509 3.54696 39.9509 2.63787C39.9509 1.56188 39.2052 0.727362 37.6569 0.727362H34.9935V8.00009ZM36.0908 7.05904V4.72949H37.7137C38.5944 4.72949 39.1448 5.29767 39.1448 5.99015C39.1448 6.60094 38.7293 7.05904 37.6746 7.05904H36.0908ZM36.0908 3.87367V1.66131H37.5894C38.4594 1.66131 38.8749 2.11941 38.8749 2.7231C38.8749 3.42623 38.2996 3.87367 37.561 3.87367H36.0908Z" fill="white"/>
</g>
</svg>
