<svg width="38" height="8" viewBox="0 0 38 8" fill="none" xmlns="http://www.w3.org/2000/svg">
<g id="&#208;&#162;&#208;&#146;&#208;&#149;&#208;&#160;&#208;&#172;">
<path d="M0.483643 1.67214H2.74927V8.00027H3.84302V1.67214H6.1122V0.727539H0.483643V1.67214Z" fill="white"/>
<path d="M8.85598 8.00027H11.6436C13.334 8.00027 14.0975 7.15865 14.0975 6.04359C14.0975 4.91788 13.3091 4.28223 12.5882 4.24316V4.17214C13.2558 4.00169 13.8134 3.54714 13.8134 2.63805C13.8134 1.56206 13.0676 0.727539 11.5193 0.727539H8.85598V8.00027ZM9.95328 7.05922V4.72967H11.5762C12.4568 4.72967 13.0073 5.29785 13.0073 5.99032C13.0073 6.60112 12.5918 7.05922 11.5371 7.05922H9.95328ZM9.95328 3.87385V1.66149H11.4519C12.3219 1.66149 12.7374 2.11958 12.7374 2.72328C12.7374 3.4264 12.1621 3.87385 11.4235 3.87385H9.95328Z" fill="white"/>
<path d="M16.899 8.00027H21.5012V7.05566H17.9962V4.8291H21.2207V3.88805H17.9962V1.67214H21.4586V0.727539H16.899V8.00027Z" fill="white"/>
<path d="M24.4243 8.00027H25.5216V5.44345H27.0131C28.6999 5.44345 29.5344 4.42427 29.5344 3.08194C29.5344 1.74316 28.707 0.727539 27.0167 0.727539H24.4243V8.00027ZM25.5216 4.51305V1.66859H26.8995C27.9861 1.66859 28.43 2.25808 28.43 3.08194C28.43 3.90581 27.9861 4.51305 26.9137 4.51305H25.5216Z" fill="white"/>
<path d="M33.4288 3.66078V0.727539H32.3279V8.00027H35.0517C36.671 8.00027 37.5978 7.09828 37.5943 5.79501C37.5978 4.49529 36.671 3.66078 35.0517 3.66078H33.4288ZM33.4288 4.58407H35.0517C35.9927 4.58407 36.5112 5.12385 36.5112 5.78081C36.5112 6.45552 35.9927 7.07697 35.0517 7.07697H33.4288V4.58407Z" fill="white"/>
</g>
</svg>
