<svg width="53" height="9" viewBox="0 0 53 9" fill="none" xmlns="http://www.w3.org/2000/svg">
<g id="&#209;&#130;&#209;&#142;&#208;&#188;&#208;&#181;&#208;&#189;&#209;&#140;">
<path d="M0.44043 1.67196H2.70605V8.00009H3.7998V1.67196H6.06898V0.727362H0.44043V1.67196Z" fill="white"/>
<path d="M9.91007 0.727362H8.81277V8.00009H9.91007V4.9106H11.1849C11.3838 6.90634 12.6977 8.09952 14.4342 8.09952C16.3163 8.09952 17.7084 6.68972 17.7084 4.36373C17.7084 2.03773 16.3163 0.62793 14.4342 0.62793C12.648 0.62793 11.3092 1.88858 11.1672 3.99086H9.91007V0.727362ZM16.6217 4.36373C16.6217 6.13574 15.6842 7.0981 14.4342 7.0981C13.1807 7.0981 12.2467 6.13574 12.2467 4.36373C12.2467 2.59171 13.1807 1.62935 14.4342 1.62935C15.6842 1.62935 16.6217 2.59171 16.6217 4.36373Z" fill="white"/>
<path d="M20.3909 0.727362V8.00009H21.4349V2.73375H21.5024L23.6473 7.98944H24.5138L26.6586 2.7373H26.7261V8.00009H27.7702V0.727362H26.4385L24.1231 6.38077H24.0379L21.7226 0.727362H20.3909Z" fill="white"/>
<path d="M31.051 8.00009H35.6533V7.05549H32.1483V4.82892H35.3728V3.88787H32.1483V1.67196H35.6107V0.727362H31.051V8.00009Z" fill="white"/>
<path d="M38.5764 8.00009H39.6737V4.82892H43.2994V8.00009H44.4003V0.727362H43.2994V3.88787H39.6737V0.727362H38.5764V8.00009Z" fill="white"/>
<path d="M48.6063 3.6606V0.727362H47.5054V8.00009H50.2291C51.8485 8.00009 52.7753 7.0981 52.7718 5.79483C52.7753 4.49512 51.8485 3.6606 50.2291 3.6606H48.6063ZM48.6063 4.5839H50.2291C51.1702 4.5839 51.6887 5.12367 51.6887 5.78063C51.6887 6.45534 51.1702 7.07679 50.2291 7.07679H48.6063V4.5839Z" fill="white"/>
</g>
</svg>
