<svg width="64" height="10" viewBox="0 0 64 10" fill="none" xmlns="http://www.w3.org/2000/svg">
<g id="&#209;&#131;&#208;&#187;&#208;&#176;&#208;&#189;-&#209;&#131;&#208;&#180;&#209;&#141;">
<path d="M1.89313 8.09952H2.39029C3.52666 8.09952 3.90308 7.46387 4.22268 6.73944L6.73688 0.727362H5.58632L3.88887 4.93191L1.98191 0.727362H0.817139L3.37396 6.18546L3.27097 6.44469C3.11472 6.82466 2.87325 7.13361 2.32992 7.13361H1.89313V8.09952Z" fill="white"/>
<path d="M8.72428 8.00009H9.03678C10.6916 8.00009 11.0893 6.7714 11.1852 4.43475L11.2989 1.65776H13.7811V8.00009H14.8642V0.727362H10.2655L10.1412 4.14356C10.0631 6.24938 9.80737 7.01998 8.93734 7.04128L8.72428 7.04838V8.00009Z" fill="white"/>
<path d="M18.5765 8.00009L19.2442 6.07537H22.0851L22.7491 8.00009H23.9139L21.2967 0.727362H20.029L17.4118 8.00009H18.5765ZM19.5638 5.15208L20.6362 2.04838H20.693L21.7655 5.15208H19.5638Z" fill="white"/>
<path d="M26.4642 8.00009H27.5615V4.82892H31.1872V8.00009H32.288V0.727362H31.1872V3.88787H27.5615V0.727362H26.4642V8.00009Z" fill="white"/>
<path d="M38.5146 3.90563H35.2901V4.82537H38.5146V3.90563Z" fill="white"/>
<path d="M41.3951 8.09952H41.8922C43.0286 8.09952 43.405 7.46387 43.7246 6.73944L46.2388 0.727362H45.0883L43.3908 4.93191L41.4839 0.727362H40.3191L42.8759 6.18546L42.7729 6.44469C42.6167 6.82466 42.3752 7.13361 41.8319 7.13361H41.3951V8.09952Z" fill="white"/>
<path d="M48.2262 9.7579H49.2774V8.00009H54.1602V9.74725H55.2113V7.06969H54.3875V0.727362H49.9024L49.7319 3.79909C49.6218 5.82324 49.1921 6.65776 48.7056 7.06969H48.2262V9.7579ZM49.9982 7.06969C50.4137 6.40563 50.6943 5.33674 50.783 3.79909L50.8967 1.67196H53.3363V7.06969H49.9982Z" fill="white"/>
<path d="M57.6825 5.69185C57.821 7.06969 58.723 8.09952 60.4773 8.09952C62.2316 8.09952 63.3537 6.78915 63.3537 4.7508V3.99441C63.3537 1.95605 62.2174 0.62793 60.4169 0.62793C58.7053 0.62793 57.821 1.67196 57.679 3.07821H58.7976C58.9112 2.13361 59.3551 1.57253 60.4169 1.57253C61.5852 1.57253 62.2387 2.51713 62.2422 3.98731H59.5611V4.9177H62.2387C62.1925 6.19966 61.6314 7.16912 60.4773 7.16912C59.3871 7.16912 58.9219 6.65066 58.7976 5.69185H57.6825Z" fill="white"/>
</g>
</svg>
