<svg width="74" height="9" viewBox="0 0 74 9" fill="none" xmlns="http://www.w3.org/2000/svg">
<g id="&#208;&#175;&#208;&#160;&#208;&#158;&#208;&#161;&#208;&#155;&#208;&#144;&#208;&#146;&#208;&#155;&#208;&#172;">
<path d="M5.65001 8.00009V0.727362H3.05768C1.37089 0.727362 0.539928 1.66841 0.539928 3.00719C0.539928 3.98375 0.98382 4.72594 1.87516 5.0562L0.262939 8.00009H1.51294L2.99021 5.24796C3.01507 5.24796 3.03638 5.24796 3.06124 5.24796H4.55271V8.00009H5.65001ZM4.55271 4.30336H3.16067C2.09177 4.30336 1.64433 3.8275 1.64433 3.00719C1.64433 2.18333 2.09177 1.66841 3.17487 1.66841H4.55271V4.30336Z" fill="white"/>
<path d="M8.74447 8.00009H9.84177V5.44327H11.3333C13.02 5.44327 13.8546 4.42409 13.8546 3.08177C13.8546 1.74299 13.0271 0.727362 11.3368 0.727362H8.74447V8.00009ZM9.84177 4.51287V1.66841H11.2196C12.3063 1.66841 12.7502 2.2579 12.7502 3.08177C12.7502 3.90563 12.3063 4.51287 11.2338 4.51287H9.84177Z" fill="white"/>
<path d="M22.9584 4.36373C22.9584 2.03773 21.5664 0.62793 19.6843 0.62793C17.7951 0.62793 16.4066 2.03773 16.4066 4.36373C16.4066 6.68617 17.7951 8.09952 19.6843 8.09952C21.5664 8.09952 22.9584 6.68972 22.9584 4.36373ZM21.8718 4.36373C21.8718 6.13574 20.9343 7.0981 19.6843 7.0981C18.4307 7.0981 17.4968 6.13574 17.4968 4.36373C17.4968 2.59171 18.4307 1.62935 19.6843 1.62935C20.9343 1.62935 21.8718 2.59171 21.8718 4.36373Z" fill="white"/>
<path d="M31.867 3.09242C31.6184 1.53702 30.4004 0.62793 28.8627 0.62793C26.9806 0.62793 25.5921 2.03773 25.5921 4.36373C25.5921 6.68972 26.9735 8.09952 28.8627 8.09952C30.4607 8.09952 31.6291 7.0981 31.867 5.65989L30.759 5.65634C30.5708 6.58674 29.7896 7.0981 28.8698 7.0981C27.6234 7.0981 26.6823 6.14284 26.6823 4.36373C26.6823 2.59881 27.6198 1.62935 28.8734 1.62935C29.8002 1.62935 30.5779 2.15137 30.759 3.09242H31.867Z" fill="white"/>
<path d="M34.1296 8.00009H34.4421C36.0969 8.00009 36.4947 6.7714 36.5905 4.43475L36.7042 1.65776H39.1864V8.00009H40.2695V0.727362H35.6708L35.5465 4.14356C35.4684 6.24938 35.2127 7.01998 34.3427 7.04128L34.1296 7.04838V8.00009Z" fill="white"/>
<path d="M43.9819 8.00009L44.6495 6.07537H47.4904L48.1545 8.00009H49.3192L46.702 0.727362H45.4343L42.8171 8.00009H43.9819ZM44.9691 5.15208L46.0415 2.04838H46.0983L47.1708 5.15208H44.9691Z" fill="white"/>
<path d="M51.8695 8.00009H54.6571C56.3475 8.00009 57.111 7.15847 57.111 6.04341C57.111 4.9177 56.3226 4.28205 55.6017 4.24299V4.17196C56.2693 4.00151 56.8269 3.54696 56.8269 2.63787C56.8269 1.56188 56.0811 0.727362 54.5328 0.727362H51.8695V8.00009ZM52.9668 7.05904V4.72949H54.5896C55.4703 4.72949 56.0208 5.29767 56.0208 5.99015C56.0208 6.60094 55.6053 7.05904 54.5506 7.05904H52.9668ZM52.9668 3.87367V1.66131H54.4654C55.3354 1.66131 55.7509 2.11941 55.7509 2.7231C55.7509 3.42623 55.1756 3.87367 54.4369 3.87367H52.9668Z" fill="white"/>
<path d="M59.362 8.00009H59.6745C61.3293 8.00009 61.7271 6.7714 61.823 4.43475L61.9366 1.65776H64.4188V8.00009H65.5019V0.727362H60.9032L60.7789 4.14356C60.7008 6.24938 60.4451 7.01998 59.5751 7.04128L59.362 7.04838V8.00009Z" fill="white"/>
<path d="M69.7079 3.6606V0.727362H68.607V8.00009H71.3308C72.9501 8.00009 73.8769 7.0981 73.8734 5.79483C73.8769 4.49512 72.9501 3.6606 71.3308 3.6606H69.7079ZM69.7079 4.5839H71.3308C72.2718 4.5839 72.7903 5.12367 72.7903 5.78063C72.7903 6.45534 72.2718 7.07679 71.3308 7.07679H69.7079V4.5839Z" fill="white"/>
</g>
</svg>
